<mxfile host="app.diagrams.net" modified="2021-10-18T00:54:27.440Z" agent="5.0 (Windows NT 6.1; Win64; x64) AppleWebKit/537.36 (KHTML, like Gecko) Chrome/94.0.4606.81 Safari/537.36" etag="JT1GF_WHiRuxYFO6hqZ4" version="15.5.4" type="github">
  <diagram id="ReQDzqdzQ1v4JbRhALHk" name="Page-1">
    <mxGraphModel dx="782" dy="482" grid="1" gridSize="10" guides="1" tooltips="1" connect="1" arrows="1" fold="1" page="1" pageScale="1" pageWidth="827" pageHeight="1169" math="0" shadow="0">
      <root>
        <mxCell id="0" />
        <mxCell id="1" parent="0" />
        <mxCell id="LRIQcvd04QONMFqEaODh-9" style="edgeStyle=orthogonalEdgeStyle;orthogonalLoop=1;jettySize=auto;html=1;entryX=0;entryY=0.75;entryDx=0;entryDy=0;strokeColor=#788AA3;fontColor=#46495D;curved=1;" edge="1" parent="1" source="LRIQcvd04QONMFqEaODh-1" target="LRIQcvd04QONMFqEaODh-2">
          <mxGeometry relative="1" as="geometry" />
        </mxCell>
        <mxCell id="LRIQcvd04QONMFqEaODh-10" style="edgeStyle=orthogonalEdgeStyle;orthogonalLoop=1;jettySize=auto;html=1;entryX=0;entryY=0.5;entryDx=0;entryDy=0;strokeColor=#788AA3;fontColor=#46495D;curved=1;" edge="1" parent="1" source="LRIQcvd04QONMFqEaODh-1" target="LRIQcvd04QONMFqEaODh-3">
          <mxGeometry relative="1" as="geometry" />
        </mxCell>
        <mxCell id="LRIQcvd04QONMFqEaODh-11" style="edgeStyle=orthogonalEdgeStyle;orthogonalLoop=1;jettySize=auto;html=1;entryX=1;entryY=0.5;entryDx=0;entryDy=0;strokeColor=#788AA3;fontColor=#46495D;curved=1;" edge="1" parent="1" source="LRIQcvd04QONMFqEaODh-1" target="LRIQcvd04QONMFqEaODh-6">
          <mxGeometry relative="1" as="geometry" />
        </mxCell>
        <mxCell id="LRIQcvd04QONMFqEaODh-12" style="edgeStyle=orthogonalEdgeStyle;orthogonalLoop=1;jettySize=auto;html=1;entryX=1;entryY=0.5;entryDx=0;entryDy=0;strokeColor=#788AA3;fontColor=#46495D;curved=1;" edge="1" parent="1" source="LRIQcvd04QONMFqEaODh-1" target="LRIQcvd04QONMFqEaODh-7">
          <mxGeometry relative="1" as="geometry" />
        </mxCell>
        <mxCell id="LRIQcvd04QONMFqEaODh-13" style="edgeStyle=orthogonalEdgeStyle;orthogonalLoop=1;jettySize=auto;html=1;entryX=1;entryY=0.5;entryDx=0;entryDy=0;strokeColor=#788AA3;fontColor=#46495D;curved=1;" edge="1" parent="1" source="LRIQcvd04QONMFqEaODh-1" target="LRIQcvd04QONMFqEaODh-8">
          <mxGeometry relative="1" as="geometry" />
        </mxCell>
        <mxCell id="LRIQcvd04QONMFqEaODh-1" value="容器实战" style="whiteSpace=wrap;html=1;fillColor=#B2C9AB;strokeColor=#788AA3;fontColor=#46495D;rounded=1;" vertex="1" parent="1">
          <mxGeometry x="320" y="210" width="120" height="60" as="geometry" />
        </mxCell>
        <mxCell id="LRIQcvd04QONMFqEaODh-2" value="容器进程" style="whiteSpace=wrap;html=1;fillColor=#B2C9AB;strokeColor=#788AA3;fontColor=#46495D;rounded=1;" vertex="1" parent="1">
          <mxGeometry x="490" y="110" width="120" height="60" as="geometry" />
        </mxCell>
        <mxCell id="LRIQcvd04QONMFqEaODh-3" value="容器存储" style="whiteSpace=wrap;html=1;fillColor=#B2C9AB;strokeColor=#788AA3;fontColor=#46495D;rounded=1;" vertex="1" parent="1">
          <mxGeometry x="490" y="290" width="120" height="60" as="geometry" />
        </mxCell>
        <mxCell id="LRIQcvd04QONMFqEaODh-6" value="容器内存" style="whiteSpace=wrap;html=1;fillColor=#B2C9AB;strokeColor=#788AA3;fontColor=#46495D;rounded=1;" vertex="1" parent="1">
          <mxGeometry x="120" y="110" width="120" height="60" as="geometry" />
        </mxCell>
        <mxCell id="LRIQcvd04QONMFqEaODh-7" value="容器网络" style="whiteSpace=wrap;html=1;fillColor=#B2C9AB;strokeColor=#788AA3;fontColor=#46495D;rounded=1;" vertex="1" parent="1">
          <mxGeometry x="120" y="210" width="120" height="60" as="geometry" />
        </mxCell>
        <mxCell id="LRIQcvd04QONMFqEaODh-8" value="容器安全" style="whiteSpace=wrap;html=1;fillColor=#B2C9AB;strokeColor=#788AA3;fontColor=#46495D;rounded=1;" vertex="1" parent="1">
          <mxGeometry x="120" y="310" width="120" height="60" as="geometry" />
        </mxCell>
      </root>
    </mxGraphModel>
  </diagram>
</mxfile>
